<?xml version="1.0" encoding="UTF-8" standalone="no"?>
<!-- Created with Inkscape (http://www.inkscape.org/) -->

<svg
   width="56.830074mm"
   height="41.310547mm"
   viewBox="0 0 56.830074 41.310547"
   version="1.1"
   id="svg863"
   inkscape:version="1.1.2 (0a00cf5339, 2022-02-04)"
   sodipodi:docname="vib_logo_neg_sml.svg"
   xmlns:inkscape="http://www.inkscape.org/namespaces/inkscape"
   xmlns:sodipodi="http://sodipodi.sourceforge.net/DTD/sodipodi-0.dtd"
   xmlns="http://www.w3.org/2000/svg"
   xmlns:svg="http://www.w3.org/2000/svg">
  <sodipodi:namedview
     id="namedview865"
     pagecolor="#ffffff"
     bordercolor="#666666"
     borderopacity="1.0"
     inkscape:pageshadow="2"
     inkscape:pageopacity="0.0"
     inkscape:pagecheckerboard="0"
     inkscape:document-units="mm"
     showgrid="false"
     fit-margin-top="0"
     fit-margin-left="0"
     fit-margin-right="0"
     fit-margin-bottom="10"
     inkscape:zoom="5.1491956"
     inkscape:cx="107.39542"
     inkscape:cy="78.070447"
     inkscape:window-width="1918"
     inkscape:window-height="1057"
     inkscape:window-x="0"
     inkscape:window-y="21"
     inkscape:window-maximized="1"
     inkscape:current-layer="layer1" />
  <defs
     id="defs860" />
  <g
     inkscape:label="Layer 1"
     inkscape:groupmode="layer"
     id="layer1"
     transform="translate(-45.525139,-67.78562)">
    <g
       aria-label="VIB"
       transform="scale(1.0091041,0.99097803)"
       id="text12497"
       style="font-weight:bold;font-size:20.9132px;line-height:1.25;font-family:Dense;-inkscape-font-specification:'Dense Bold';text-align:center;letter-spacing:1.08172px;word-spacing:0px;text-anchor:middle;fill:#f4f4f4;stroke-width:0.270431;fill-opacity:1">
      <path
         d="m 68.881477,83.978837 4.64273,11.481347 -1.589403,-0.334611 4.24538,-11.146736 h 3.262459 L 72.520374,99.998349 65.577191,83.978837 Z"
         style="font-weight:600;font-family:'Reem Kufi Fun';-inkscape-font-specification:'Reem Kufi Fun Semi-Bold';text-align:start;text-anchor:start;fill:#f4f4f4;fill-opacity:1"
         id="path1003" />
      <path
         d="m 83.284883,83.978837 h 2.73963 V 99.2873 h -2.73963 z"
         style="font-weight:600;font-family:'Reem Kufi Fun';-inkscape-font-specification:'Reem Kufi Fun Semi-Bold';text-align:start;text-anchor:start;fill:#f4f4f4;fill-opacity:1"
         id="path1005" />
      <path
         d="m 95.534246,83.978837 q 2.384105,0 3.764376,0.962008 1.380268,0.962007 1.380268,2.886021 0,1.359358 -0.64831,2.300452 -0.648305,0.920181 -1.798531,1.401185 -1.129313,0.481003 -2.61415,0.501917 l -0.439178,-1.484838 q 1.798536,0.02091 3.19972,0.543744 1.401185,0.52283 2.216799,1.484837 0.83653,0.941094 0.83653,2.258625 0,1.212966 -0.46009,2.070407 -0.43918,0.857441 -1.192054,1.380271 -0.731962,0.522831 -1.69397,0.773789 Q 97.144562,99.2873 96.140729,99.2873 H 91.205213 V 83.978837 Z m 0.376437,6.378527 q 1.003834,0 1.463925,-0.58557 0.46009,-0.58557 0.46009,-1.359358 0,-0.899268 -0.58557,-1.338445 -0.585569,-0.439177 -1.56849,-0.439177 h -1.735795 v 3.72255 z m 0.104566,6.378526 q 1.066574,0 1.819449,-0.460091 0.752875,-0.46009 0.752875,-1.443011 0,-0.711048 -0.418264,-1.108399 -0.397351,-0.397351 -1.04566,-0.543743 -0.627396,-0.167306 -1.296618,-0.167306 h -1.882188 v 3.72255 z"
         style="font-weight:600;font-family:'Reem Kufi Fun';-inkscape-font-specification:'Reem Kufi Fun Semi-Bold';text-align:start;text-anchor:start;fill:#f4f4f4;fill-opacity:1"
         id="path1007" />
    </g>
    <path
       style="fill:#ff681e;fill-opacity:1;stroke:none;stroke-width:0.282091px;stroke-linecap:butt;stroke-linejoin:miter;stroke-opacity:1"
       d="m 45.525139,83.221133 h 15.875 v 15.875 z"
       id="path20214" />
    <path
       style="fill:#5c2a83;fill-opacity:1;stroke:none;stroke-width:0.179055px;stroke-linecap:butt;stroke-linejoin:miter;stroke-opacity:1;paint-order:stroke fill markers"
       d="m 61.828735,67.78562 7.125203,7.125202 -7.125203,7.1252 z"
       id="path20214-1" />
    <circle
       style="fill:#1cbbba;fill-opacity:1;stroke-width:1.79996;stroke-linecap:round;stroke-linejoin:round"
       id="path57706"
       cx="54.157837"
       cy="75.361198"
       r="5.5060539" />
    <text
       xml:space="preserve"
       style="font-weight:bold;font-size:7.05556px;line-height:1.25;font-family:Dense;-inkscape-font-specification:'Dense Bold';text-align:center;letter-spacing:0px;word-spacing:0px;text-anchor:middle;stroke-width:0.264583;fill:#f4f4f4;fill-opacity:1"
       x="84.285873"
       y="106.61198"
       id="text8063"><tspan
         sodipodi:role="line"
         id="tspan8061"
         style="stroke-width:0.264583;fill:#f4f4f4;fill-opacity:1"
         x="84.285873"
         y="106.61198">science meets life</tspan></text>
  </g>
</svg>
